<?xml version="1.0" encoding="utf-8"?>
<svg version="1.1" xmlns:xlink="http://www.w3.org/1999/xlink" width="50px" height="50px" xmlns="http://www.w3.org/2000/svg">
  <g transform="matrix(1 0 0 1 0 -51 )">
    <path d="M 30.37109375 29.0859173126615  C 31.217447916666668 28.041559000861326  31.781684027777786 27.51937984496124  32.06380208333333 27.51937984496124  C 32.34592013888889 27.51937984496124  33.40386284722223 27.993109388458226  35.23763020833333 28.9405684754522  C 37.07139756944445 29.88802756244616  38.04253472222223 30.458656330749356  38.15104166666667 30.652454780361758  C 38.19444444444445 30.760120585701976  38.21614583333333 30.921619293712315  38.21614583333333 31.13695090439277  C 38.21614583333333 31.847545219638242  38.031684027777786 32.66580534022394  37.66276041666667 33.59173126614987  C 37.31553819444445 34.43152454780362  36.54513888888889 35.13673557278209  35.3515625 35.70736434108527  C 34.157986111111114 36.277993109388454  33.05121527777778 36.56330749354005  32.03125 36.56330749354005  C 30.794270833333336 36.56330749354005  28.73263888888889 35.895779500430656  25.846354166666668 34.56072351421189  C 23.719618055555557 33.59173126614987  21.875 32.32127476313522  20.3125 30.749354005167962  C 18.75 29.17743324720069  17.144097222222225 27.18561584840654  15.494791666666666 24.77390180878553  C 13.932291666666666 22.469853574504732  13.161892361111112 20.381136950904395  13.18359375 18.507751937984494  L 13.18359375 18.249354005167955  C 13.248697916666668 16.28983634797588  14.051649305555557 14.58871662360034  15.592447916666666 13.14599483204134  C 16.11328125 12.672265288544354  16.677517361111114 12.435400516795864  17.28515625 12.435400516795864  C 17.415364583333336 12.435400516795864  17.610677083333336 12.4515503875969  17.87109375 12.483850129198965  C 18.131510416666664 12.516149870801035  18.337673611111114 12.532299741602065  18.489583333333336 12.532299741602065  C 18.901909722222225 12.532299741602065  19.189453125 12.60228251507321  19.352213541666664 12.742248062015504  C 19.514973958333336 12.882213608957793  19.683159722222225 13.178294573643413  19.856770833333336 13.63049095607235  C 20.030381944444446 14.061154177433243  20.388454861111114 15.008613264427211  20.930989583333336 16.472868217054266  C 21.473524305555557 17.937123169681307  21.744791666666664 18.744616709732988  21.744791666666664 18.8953488372093  C 21.744791666666664 19.347545219638242  21.370442708333336 19.96662360034453  20.621744791666664 20.752583979328165  C 19.873046875 21.538544358311796  19.498697916666664 22.03919035314384  19.498697916666664 22.254521963824292  C 19.498697916666664 22.405254091300602  19.552951388888893 22.566752799310937  19.661458333333336 22.739018087855296  C 20.399305555555557 24.310938845822566  21.506076388888893 25.78596037898363  22.981770833333336 27.1640826873385  C 24.197048611111114 28.305340223944874  25.835503472222225 29.392764857881136  27.897135416666668 30.426356589147286  C 28.157552083333332 30.577088716623596  28.39626736111111 30.652454780361758  28.61328125 30.652454780361758  C 28.938802083333336 30.652454780361758  29.524739583333336 30.130275624461667  30.37109375 29.0859173126615  Z M 14.225260416666666 41.27906976744186  C 17.654079861111114 43.51851851851852  21.397569444444443 44.638242894056845  25.455729166666668 44.638242894056845  C 28.211805555555557 44.638242894056845  30.853949652777786 44.099913867355724  33.38216145833333 43.02325581395349  C 35.91037326388889 41.94659776055125  38.0859375 40.50387596899225  39.90885416666667 38.695090439276484  C 41.73177083333333 36.88630490956072  43.18576388888889 34.72760551248923  44.27083333333333 32.218992248062015  C 45.355902777777786 29.710378983634794  45.8984375 27.08871662360034  45.8984375 24.354005167958658  C 45.8984375 21.619293712316967  45.355902777777786 18.99763135228251  44.27083333333333 16.489018087855296  C 43.18576388888889 13.980404823428078  41.73177083333333 11.821705426356587  39.90885416666667 10.012919896640826  C 38.0859375 8.204134366925064  35.91037326388889 6.7614125753660606  33.38216145833333 5.684754521963825  C 30.853949652777786 4.608096468561579  28.211805555555557 4.069767441860467  25.455729166666668 4.069767441860467  C 22.69965277777778 4.069767441860467  20.057508680555557 4.608096468561579  17.529296875 5.684754521963825  C 15.001085069444445 6.7614125753660606  12.825520833333334 8.204134366925064  11.002604166666668 10.012919896640826  C 9.1796875 11.821705426356587  7.725694444444445 13.980404823428078  6.640625 16.489018087855296  C 5.555555555555556 18.99763135228251  5.013020833333334 21.619293712316967  5.013020833333334 24.354005167958658  C 5.013020833333334 28.725236864771748  6.315104166666667 32.68733850129199  8.919270833333332 36.240310077519375  L 6.34765625 43.76614987080104  L 14.225260416666666 41.27906976744186  Z M 15.934244791666666 1.937984496124029  C 18.961588541666664 0.6459948320413411  22.135416666666664 0  25.455729166666668 0  C 28.776041666666668 0  31.949869791666668 0.6459948320413411  34.97721354166667 1.937984496124029  C 38.00455729166667 3.2299741602067167  40.61414930555556 4.96339362618432  42.80598958333333 7.138242894056845  C 44.997829861111114 9.31309216192937  46.74479166666667 11.90245478036176  48.046875 14.906330749354007  C 49.34895833333333 17.91020671834625  50 21.0594315245478  50 24.354005167958658  C 50 27.648578811369507  49.34895833333333 30.797803617571063  48.046875 33.8016795865633  C 46.74479166666667 36.80555555555556  44.997829861111114 39.39491817398794  42.80598958333333 41.56976744186046  C 40.61414930555556 43.74461670973299  38.00455729166667 45.47803617571059  34.97721354166667 46.770025839793284  C 31.949869791666668 48.06201550387597  28.776041666666668 48.708010335917315  25.455729166666668 48.708010335917315  C 21.223958333333336 48.708010335917315  17.263454861111114 47.69595176571921  13.57421875 45.671834625323  L 0 50  L 4.427083333333334 36.91860465116279  C 2.083333333333333 33.08570198105082  0.9114583333333334 28.897502153316108  0.9114583333333334 24.354005167958658  C 0.9114583333333334 21.0594315245478  1.5625 17.91020671834625  2.864583333333333 14.906330749354007  C 4.166666666666666 11.90245478036176  5.913628472222223 9.31309216192937  8.10546875 7.138242894056845  C 10.297309027777779 4.96339362618432  12.906901041666666 3.2299741602067167  15.934244791666666 1.937984496124029  Z " fill-rule="nonzero" fill="#00aaaa" stroke="none" transform="matrix(1 0 0 1 0 51 )" />
  </g>
</svg>