<?xml version="1.0" encoding="utf-8"?>
<svg version="1.1" xmlns:xlink="http://www.w3.org/1999/xlink" width="50px" height="45px" xmlns="http://www.w3.org/2000/svg">
  <g transform="matrix(1 0 0 1 -263 -56 )">
    <path d="M 49.46986607142857 14.934375000000001  C 49.82328869047619 15.290624999999997  50 15.712499999999999  50 16.2  C 50 16.687499999999996  49.82328869047619 17.109374999999996  49.46986607142857 17.465625000000003  L 35.184151785714285 31.865625  C 34.83072916666667 32.221875  34.41220238095239 32.4  33.92857142857143 32.4  C 33.444940476190474 32.4  33.02641369047619 32.221875  32.67299107142857 31.865625  C 32.319568452380956 31.509375  32.142857142857146 31.0875  32.142857142857146 30.599999999999998  L 32.142857142857146 23.400000000000002  L 25.892857142857146 23.400000000000002  C 24.069940476190478 23.400000000000002  22.437686011904763 23.45625  20.99609375 23.568749999999998  C 19.554501488095237 23.68125  18.122209821428573 23.8828125  16.69921875 24.1734375  C 15.276227678571427 24.464062499999997  14.039248511904765 24.8625  12.98828125 25.36875  C 11.937313988095239 25.874999999999996  10.95610119047619 26.5265625  10.044642857142858 27.3234375  C 9.133184523809526 28.120312499999994  8.389136904761905 29.067187500000003  7.8125 30.1640625  C 7.235863095238096 31.2609375  6.784784226190476 32.559374999999996  6.459263392857142 34.059374999999996  C 6.133742559523809 35.559374999999996  5.970982142857143 37.25625  5.970982142857143 39.15  C 5.970982142857143 40.18125  6.0174851190476195 41.334375  6.110491071428571 42.609375  C 6.110491071428572 42.721875  6.13374255952381 42.942187499999996  6.180245535714286 43.2703125  C 6.226748511904763 43.5984375  6.25 43.846875  6.25 44.015625  C 6.25 44.296875  6.170944940476191 44.53125  6.012834821428571 44.71875  C 5.854724702380953 44.90625  5.636160714285715 45  5.357142857142857 45  C 5.059523809523809 45  4.799107142857143 44.840625  4.575892857142857 44.521875  C 4.445684523809524 44.353125  4.324776785714286 44.146875  4.213169642857143 43.903124999999996  C 4.1015625 43.659375  3.9760044642857144 43.378125  3.8364955357142856 43.059375  C 3.6969866071428568 42.740625  3.5993303571428568 42.515625  3.5435267857142856 42.384375  C 1.1811755952380951 37.040625  0 32.81249999999999  0 29.699999999999996  C 0 25.968749999999996  0.4929315476190475 22.846874999999994  1.4787946428571428 20.334375  C 4.4921875 12.778125  12.630208333333332 8.999999999999998  25.892857142857146 8.999999999999998  L 32.142857142857146 8.999999999999998  L 32.142857142857146 1.8000000000000016  C 32.142857142857146 1.3124999999999953  32.319568452380956 0.8906249999999943  32.67299107142857 0.5343749999999986  C 33.02641369047619 0.17812499999999787  33.444940476190474 0  33.92857142857143 0  C 34.41220238095239 0  34.83072916666667 0.17812499999999787  35.184151785714285 0.5343749999999986  L 49.46986607142857 14.934375000000001  Z " fill-rule="nonzero" fill="#00aaaa" stroke="none" transform="matrix(1 0 0 1 263 56 )" />
  </g>
</svg>