<?xml version="1.0" encoding="utf-8"?>
<svg version="1.1" xmlns:xlink="http://www.w3.org/1999/xlink" width="29px" height="26px" xmlns="http://www.w3.org/2000/svg">
  <g transform="matrix(1 0 0 1 -696 -331 )">
    <path d="M 4.295625 21.353515625  C 4.525208333333334 21.14474826388889  4.64 20.888020833333332  4.64 20.583333333333332  C 4.64 20.289930555555557  4.525208333333334 20.036024305555557  4.295625 19.821614583333332  C 4.066041666666667 19.60720486111111  3.7941666666666665 19.5  3.48 19.5  C 3.15375 19.5  2.8788541666666667 19.60720486111111  2.6553125 19.821614583333332  C 2.4317708333333337 20.036024305555557  2.32 20.289930555555557  2.32 20.583333333333332  C 2.32 20.888020833333332  2.4317708333333337 21.14474826388889  2.6553125 21.353515625  C 2.8788541666666667 21.56228298611111  3.15375 21.666666666666668  3.48 21.666666666666668  C 3.7941666666666665 21.666666666666668  4.066041666666667 21.56228298611111  4.295625 21.353515625  Z M 7.195625000000001 11.154947916666668  C 7.425208333333333 11.369357638888888  7.54 11.623263888888888  8 11.916666666666668  L 8 22.75  C 7.54 23.04340277777778  7.425208333333333 23.29730902777778  7.195625000000001 23.51171875  C 6.966041666666667 23.72612847222222  6.694166666666668 23.833333333333332  6.38 23.833333333333332  L 1.16 23.833333333333332  C 0.8458333333333334 23.833333333333332  0.5739583333333333 23.72612847222222  0.344375 23.51171875  C 0.11479166666666665 23.29730902777778  0 23.04340277777778  0 22.75  L 0 11.916666666666668  C 0 11.623263888888888  0.11479166666666665 11.369357638888888  0.344375 11.154947916666668  C 0.5739583333333333 10.940538194444445  0.8458333333333334 10.833333333333332  1.16 10.833333333333332  L 6.38 10.833333333333332  C 6.694166666666668 10.833333333333332  6.966041666666667 10.940538194444445  7.195625000000001 11.154947916666668  Z M 27.966874999999998 9.631510416666668  C 28.655625 10.274739583333332  29 11.036458333333332  29 11.916666666666668  C 29 12.887152777777777  28.667708333333337 13.727864583333336  28.003124999999997 14.438802083333336  C 28.184375000000003 14.93532986111111  28.275000000000002 15.364149305555555  28.275 15.725260416666664  C 28.311250000000005 16.582899305555554  28.05145833333334 17.355902777777775  27.495625 18.044270833333336  C 27.70104166666667 18.676215277777775  27.70104166666667 19.336371527777775  27.495625 20.024739583333332  C 27.314375000000002 20.66796875  26.988125 21.198350694444443  26.516875000000002 21.615885416666668  C 26.625625 22.879774305555557  26.329583333333336 23.901041666666668  25.62875 24.6796875  C 24.85541666666667 25.53732638888889  23.665208333333332 25.977430555555557  22.058125 26  L 21.405625 26  L 20.028125000000003 26  L 19.720000000000002 26  C 18.9225 26  18.052500000000002 25.91254340277778  17.11 25.737630208333332  C 16.1675 25.56271701388889  15.4334375 25.399088541666668  14.907812499999999 25.246744791666668  C 14.382187499999999 25.094401041666668  13.654166666666669 24.87152777777778  12.723749999999999 24.578125  C 11.2375 24.092881944444443  10.282916666666667 23.844618055555557  9.860000000000001 23.833333333333332  C 9.545833333333334 23.82204861111111  9.273958333333335 23.712022569444443  9.044375 23.503255208333332  C 8.814791666666666 23.29448784722222  8.700000000000001 23.04340277777778  9 22.75  L 9 11.899739583333332  C 8.700000000000001 11.617621527777777  8.80875 11.372178819444443  9.026250000000001 11.163411458333332  C 9.24375 10.954644097222223  9.503541666666669 10.838975694444443  9.805625000000001 10.81640625  C 10.095625 10.793836805555552  10.554791666666668 10.460937499999996  11.183125 9.817708333333332  C 11.811458333333334 9.174479166666664  12.421666666666667 8.49175347222222  13.01375 7.76953125  C 13.835416666666669 6.787760416666668  14.445625000000003 6.110677083333332  14.844375 5.73828125  C 15.061875 5.53515625  15.249166666666667 5.264322916666668  15.40625 4.92578125  C 15.563333333333336 4.587239583333332  15.669062499999999 4.313585069444442  15.723437500000001 4.104817708333332  C 15.7778125 3.8960503472222197  15.859375 3.5546875  15.968125 3.080729166666668  C 16.052708333333335 2.640625  16.12822916666667 2.2964409722222197  16.1946875 2.048177083333332  C 16.261145833333334 1.7999131944444422  16.378958333333333 1.5065104166666676  16.548125000000002 1.16796875  C 16.717291666666668 0.8294270833333324  16.922708333333336 0.5473090277777775  17.164375 0.32161458333333237  C 17.393958333333334 0.10720486111110983  17.665833333333335 0  17.98 0  C 18.535833333333333 0  19.034270833333334 0.05924479166666763  19.475312499999998 0.177734375  C 19.916354166666668 0.29622395833333237  20.27885416666667 0.44292534722221966  20.5628125 0.6178385416666676  C 20.846770833333334 0.7927517361111098  21.0884375 1.0212673611111098  21.287812499999998 1.3033854166666676  C 21.4871875 1.5855034722222197  21.6321875 1.8394097222222197  21.7228125 2.065104166666668  C 21.8134375 2.29079861111111  21.885937499999997 2.572916666666668  21.9403125 2.911458333333332  C 21.9946875 3.25  22.024895833333336 3.50390625  22.0309375 3.673177083333332  C 22.03697916666667 3.842447916666668  22.04 4.0625  22.04 4.333333333333332  C 22.04 4.762152777777778  21.982604166666672 5.19097222222222  21.8678125 5.619791666666668  C 21.753020833333334 6.04861111111111  21.63822916666667 6.387152777777778  21.5234375 6.635416666666668  C 21.408645833333335 6.883680555555552  21.2425 7.199652777777778  21.025 7.583333333333332  C 20.98875 7.651041666666668  20.928333333333335 7.752604166666668  20.84375 7.888020833333332  C 20.75916666666667 8.0234375  20.692708333333336 8.147569444444443  20.644375 8.260416666666668  C 20.596041666666668 8.373263888888888  20.547708333333336 8.508680555555552  20.499375 8.666666666666668  L 25.52 8.666666666666668  C 26.4625 8.666666666666668  27.278125000000003 8.98828125  27.966874999999998 9.631510416666668  Z " fill-rule="nonzero" fill="#fffdfd" stroke="none" transform="matrix(1 0 0 1 696 331 )" />
  </g>
</svg>