<?xml version="1.0" encoding="utf-8"?>
<svg version="1.1" xmlns:xlink="http://www.w3.org/1999/xlink" width="30px" height="26px" xmlns="http://www.w3.org/2000/svg">
  <g transform="matrix(1 0 0 1 -310 -789 )">
    <path d="M 4.4437500000000005 21.353515625  C 4.68125 21.14474826388889  4.8 20.888020833333332  4.8 20.583333333333332  C 4.8 20.289930555555557  4.68125 20.036024305555557  4.4437500000000005 19.821614583333332  C 4.206250000000001 19.60720486111111  3.925 19.5  3.5999999999999996 19.5  C 3.2625 19.5  2.978125 19.60720486111111  2.746875 19.821614583333332  C 2.515625 20.036024305555557  2.4 20.289930555555557  2.4 20.583333333333332  C 2.4 20.888020833333332  2.515625 21.14474826388889  2.746875 21.353515625  C 2.978125 21.56228298611111  3.2625 21.666666666666668  3.5999999999999996 21.666666666666668  C 3.925 21.666666666666668  4.206250000000001 21.56228298611111  4.4437500000000005 21.353515625  Z M 7.4437500000000005 11.154947916666668  C 7.68125 11.369357638888888  7.800000000000001 11.623263888888888  8 11.916666666666668  L 8 22.75  C 7.800000000000001 23.04340277777778  7.68125 23.29730902777778  7.4437500000000005 23.51171875  C 7.206250000000001 23.72612847222222  6.925000000000001 23.833333333333332  6.6 23.833333333333332  L 1.2 23.833333333333332  C 0.8750000000000001 23.833333333333332  0.59375 23.72612847222222  0.35625 23.51171875  C 0.11874999999999998 23.29730902777778  0 23.04340277777778  0 22.75  L 0 11.916666666666668  C 0 11.623263888888888  0.11874999999999998 11.369357638888888  0.35625 11.154947916666668  C 0.59375 10.940538194444445  0.8750000000000001 10.833333333333332  1.2 10.833333333333332  L 6.6 10.833333333333332  C 6.925000000000001 10.833333333333332  7.206250000000001 10.940538194444445  7.4437500000000005 11.154947916666668  Z M 28.93125 9.631510416666668  C 29.64375 10.274739583333332  30 11.036458333333332  30 11.916666666666668  C 30 12.887152777777777  29.656250000000004 13.727864583333336  28.96875 14.438802083333336  C 29.156250000000004 14.93532986111111  29.250000000000004 15.364149305555555  29.25 15.725260416666664  C 29.287500000000005 16.582899305555554  29.018750000000008 17.355902777777775  28.44375 18.044270833333336  C 28.656250000000004 18.676215277777775  28.656250000000004 19.336371527777775  28.44375 20.024739583333332  C 28.25625 20.66796875  27.918750000000003 21.198350694444443  27.431250000000002 21.615885416666668  C 27.54375 22.879774305555557  27.2375 23.901041666666668  26.512500000000003 24.6796875  C 25.712500000000002 25.53732638888889  24.48125 25.977430555555557  22.81875 26  L 22.14375 26  L 20.71875 26  L 20.400000000000002 26  C 19.575 26  18.675 25.91254340277778  17.7 25.737630208333332  C 16.725 25.56271701388889  15.965625000000001 25.399088541666668  15.421875 25.246744791666668  C 14.878124999999999 25.094401041666668  14.125000000000002 24.87152777777778  13.1625 24.578125  C 11.625 24.092881944444443  10.637500000000001 23.844618055555557  10.200000000000001 23.833333333333332  C 9.875000000000002 23.82204861111111  9.59375 23.712022569444443  9.356250000000001 23.503255208333332  C 9.11875 23.29448784722222  9.000000000000002 23.04340277777778  9 22.75  L 9 11.899739583333332  C 9.000000000000002 11.617621527777777  9.1125 11.372178819444443  9.3375 11.163411458333332  C 9.562500000000002 10.954644097222223  9.83125 10.838975694444443  10.14375 10.81640625  C 10.443750000000001 10.793836805555552  10.918750000000001 10.460937499999996  11.56875 9.817708333333332  C 12.218750000000002 9.174479166666664  12.85 8.49175347222222  13.462499999999999 7.76953125  C 14.312500000000002 6.787760416666668  14.943750000000003 6.110677083333332  15.35625 5.73828125  C 15.58125 5.53515625  15.775000000000002 5.264322916666668  15.9375 4.92578125  C 16.1 4.587239583333332  16.209374999999998 4.313585069444442  16.265625 4.104817708333332  C 16.321875 3.8960503472222197  16.40625 3.5546875  16.51875 3.080729166666668  C 16.606250000000003 2.640625  16.684375000000003 2.2964409722222197  16.753125 2.048177083333332  C 16.821875000000002 1.7999131944444422  16.94375 1.5065104166666676  17.118750000000002 1.16796875  C 17.293750000000003 0.8294270833333324  17.50625 0.5473090277777775  17.75625 0.32161458333333237  C 17.993750000000002 0.10720486111110983  18.275000000000002 0  18.6 0  C 19.175 0  19.690625 0.05924479166666763  20.146874999999998 0.177734375  C 20.603125000000002 0.29622395833333237  20.978125000000002 0.44292534722221966  21.271875 0.6178385416666676  C 21.565625 0.7927517361111098  21.815625 1.0212673611111098  22.021874999999998 1.3033854166666676  C 22.228125000000002 1.5855034722222197  22.378125 1.8394097222222197  22.471874999999997 2.065104166666668  C 22.565625 2.29079861111111  22.640625 2.572916666666668  22.696875000000002 2.911458333333332  C 22.753125 3.25  22.784375 3.50390625  22.790625 3.673177083333332  C 22.796875000000004 3.842447916666668  22.8 4.0625  22.8 4.333333333333332  C 22.8 4.762152777777778  22.740625000000005 5.19097222222222  22.621875 5.619791666666668  C 22.503125 6.04861111111111  22.384375000000002 6.387152777777778  22.265625 6.635416666666668  C 22.146875 6.883680555555552  21.975 7.199652777777778  21.75 7.583333333333332  C 21.7125 7.651041666666668  21.65 7.752604166666668  21.5625 7.888020833333332  C 21.475 8.0234375  21.406250000000004 8.147569444444443  21.356250000000003 8.260416666666668  C 21.306250000000002 8.373263888888888  21.25625 8.508680555555552  21.20625 8.666666666666668  L 26.4 8.666666666666668  C 27.375 8.666666666666668  28.21875 8.98828125  28.93125 9.631510416666668  Z " fill-rule="nonzero" fill="#fffdfd" stroke="none" transform="matrix(1 0 0 1 310 789 )" />
  </g>
</svg>