<?xml version="1.0" encoding="utf-8"?>
<svg version="1.1" xmlns:xlink="http://www.w3.org/1999/xlink" width="23px" height="25px" xmlns="http://www.w3.org/2000/svg">
  <g transform="matrix(1 0 0 1 -313 -832 )">
    <path d="M 14.944010416666668 15.983072916666668  C 15.862413194444446 15.049913194444443  16.950520833333332 14.583333333333332  18.208333333333332 14.583333333333332  C 19.536024305555557 14.583333333333332  20.666558159722225 15.09060329861111  21.599934895833332 16.105143229166668  C 22.533311631944443 17.11968315972222  23 18.348524305555554  23 19.791666666666664  C 23 21.23480902777778  22.533311631944443 22.463650173611114  21.599934895833332 23.478190104166664  C 20.666558159722225 24.49273003472222  19.536024305555557 25  18.208333333333332 25  C 16.880642361111114 25  15.750108506944446 24.49273003472222  14.816731770833332 23.478190104166664  C 13.883355034722225 22.463650173611114  13.416666666666668 21.23480902777778  13.416666666666668 19.791666666666664  C 13.416666666666668 19.661458333333336  13.426649305555557 19.476996527777775  13.446614583333332 19.23828125  L 8.055989583333334 16.30859375  C 7.137586805555555 17.24175347222222  6.049479166666666 17.708333333333332  4.791666666666667 17.708333333333332  C 3.4639756944444446 17.708333333333332  2.333441840277778 17.201063368055554  1.4000651041666667 16.1865234375  C 0.46668836805555547 15.171983506944443  0 13.94314236111111  0 12.5  C 0 11.056857638888888  0.46668836805555547 9.828016493055555  1.4000651041666667 8.8134765625  C 2.333441840277778 7.798936631944442  3.4639756944444446 7.291666666666666  4.791666666666667 7.291666666666666  C 6.049479166666666 7.291666666666666  7.137586805555555 7.758246527777776  8.055989583333334 8.69140625  L 13.446614583333332 5.76171875  C 13.426649305555557 5.523003472222221  13.416666666666668 5.338541666666666  13.416666666666668 5.208333333333334  C 13.416666666666668 3.765190972222221  13.883355034722225 2.5363498263888866  14.816731770833332 1.5218098958333344  C 15.750108506944446 0.5072699652777762  16.880642361111114 0  18.208333333333332 0  C 19.536024305555557 0  20.666558159722225 0.5072699652777762  21.599934895833332 1.5218098958333344  C 22.533311631944443 2.5363498263888866  23 3.765190972222221  23 5.208333333333334  C 23 6.651475694444442  22.533311631944443 7.880316840277776  21.599934895833332 8.894856770833334  C 20.666558159722225 9.90939670138889  19.536024305555557 10.416666666666666  18.208333333333332 10.416666666666666  C 16.950520833333332 10.416666666666666  15.862413194444446 9.950086805555555  14.944010416666668 9.016927083333334  L 9.553385416666666 11.946614583333334  C 9.573350694444445 12.18532986111111  9.583333333333334 12.369791666666666  9.583333333333334 12.5  C 9.583333333333334 12.630208333333332  9.573350694444445 12.81467013888889  9.553385416666666 13.053385416666668  L 14.944010416666668 15.983072916666668  Z " fill-rule="nonzero" fill="#ffffff" stroke="none" transform="matrix(1 0 0 1 313 832 )" />
  </g>
</svg>