<?xml version="1.0" encoding="utf-8"?>
<svg version="1.1" xmlns:xlink="http://www.w3.org/1999/xlink" width="30px" height="23px" xmlns="http://www.w3.org/2000/svg">
  <g transform="matrix(1 0 0 1 0 -91 )">
    <path d="M 24.70982142857143 12.338541666666664  C 26.80803571428572 10.461805555555554  27.857142857142858 8.684895833333332  27.857142857142858 7.0078125  C 27.857142857142858 6.19921875  27.73716517857143 5.485460069444443  27.49720982142857 4.866536458333332  C 27.257254464285715 4.247612847222219  26.950334821428577 3.7559678819444433  26.576450892857142 3.3916015625  C 26.20256696428572 3.027235243055554  25.74776785714286 2.7302517361111107  25.21205357142857 2.5006510416666674  C 24.67633928571429 2.271050347222219  24.151785714285715 2.1163194444444433  23.638392857142858 2.0364583333333326  C 23.125 1.9565972222222192  22.578125000000004 1.9166666666666674  21.997767857142858 1.9166666666666674  C 21.41741071428572 1.9166666666666674  20.79241071428571 2.0439453125  20.122767857142858 2.2985026041666674  C 19.453125 2.5530598958333326  18.836495535714285 2.872504340277776  18.27287946428571 3.2568359375  C 17.709263392857146 3.641167534722219  17.2265625 4.000542534722219  16.82477678571429 4.3349609375  C 16.422991071428573 4.669379340277776  16.088169642857146 4.976345486111111  15.8203125 5.255859375  C 15.619419642857146 5.4754774305555545  15.345982142857144 5.585286458333332  15 5.585286458333332  C 14.654017857142858 5.585286458333332  14.380580357142856 5.4754774305555545  14.1796875 5.255859375  C 13.911830357142856 4.976345486111111  13.577008928571429 4.669379340277776  13.175223214285715 4.3349609375  C 12.7734375 4.000542534722219  12.29073660714286 3.641167534722219  11.727120535714285 3.2568359375  C 11.163504464285715 2.872504340277776  10.546875 2.5530598958333326  9.877232142857144 2.2985026041666674  C 9.207589285714285 2.0439453125  8.582589285714288 1.9166666666666674  8.002232142857144 1.9166666666666674  C 7.421875 1.9166666666666674  6.875000000000002 1.9565972222222192  6.361607142857142 2.0364583333333326  C 5.8482142857142865 2.1163194444444433  5.323660714285714 2.271050347222219  4.787946428571428 2.5006510416666674  C 4.252232142857142 2.7302517361111107  3.7974330357142856 3.027235243055554  3.423549107142857 3.3916015625  C 3.049665178571429 3.7559678819444433  2.7427455357142856 4.247612847222219  2.502790178571429 4.866536458333332  C 2.262834821428572 5.485460069444443  2.142857142857143 6.19921875  2.142857142857143 7.0078125  C 2.142857142857143 8.684895833333332  3.186383928571429 10.45681423611111  5.2734375 12.323567708333336  L 15 20.708984375  L 24.70982142857143 12.338541666666664  Z M 27.87388392857143 1.8567708333333326  C 29.291294642857146 3.094618055555554  30 4.811631944444443  30 7.0078125  C 30 9.213975694444443  28.722098214285715 11.460069444444443  26.166294642857142 13.74609375  L 15.736607142857142 22.73046875  C 15.535714285714286 22.91015625  15.290178571428573 23  15 23  C 14.709821428571429 23  14.464285714285715 22.91015625  14.263392857142856 22.73046875  L 3.8169642857142856 13.716145833333336  C 3.7053571428571432 13.636284722222221  3.551897321428572 13.506510416666664  3.356584821428571 13.326822916666664  C 3.1612723214285716 13.147135416666664  2.8515625000000004 12.820203993055557  2.427455357142857 12.346028645833336  C 2.0033482142857144 11.871853298611109  1.6238839285714286 11.385199652777775  1.2890625 10.886067708333332  C 0.9542410714285714 10.38693576388889  0.6556919642857143 9.78298611111111  0.3934151785714286 9.07421875  C 0.13113839285714285 8.365451388888886  0 7.6766493055555545  0 7.0078125  C 0 4.811631944444443  0.708705357142857 3.094618055555554  2.126116071428571 1.8567708333333326  C 3.543526785714286 0.6189236111111108  5.502232142857142 0  8.002232142857144 0  C 8.694196428571429 0  9.400111607142856 0.10731336805555414  10.119977678571429 0.3219401041666675  C 10.83984375 0.5365668402777758  11.509486607142856 0.8260633680555541  12.12890625 1.1904296875  C 12.748325892857146 1.5547960069444433  13.281250000000004 1.8967013888888866  13.727678571428571 2.2161458333333326  C 14.174107142857144 2.535590277777776  14.598214285714285 2.875  15 3.234375  C 15.401785714285714 2.875  15.82589285714286 2.535590277777776  16.27232142857143 2.2161458333333326  C 16.718750000000004 1.8967013888888866  17.251674107142858 1.5547960069444433  17.87109375 1.1904296875  C 18.490513392857142 0.8260633680555541  19.16015625 0.5365668402777758  19.88002232142857 0.3219401041666675  C 20.599888392857142 0.10731336805555414  21.305803571428573 0  21.997767857142858 0  C 24.497767857142858 0  26.45647321428572 0.6189236111111108  27.87388392857143 1.8567708333333326  Z " fill-rule="nonzero" fill="#00aaaa" stroke="none" transform="matrix(1 0 0 1 0 91 )" />
  </g>
</svg>