<?xml version="1.0" encoding="utf-8"?>
<svg version="1.1" xmlns:xlink="http://www.w3.org/1999/xlink" width="31px" height="23px" xmlns="http://www.w3.org/2000/svg">
  <g transform="matrix(1 0 0 1 -930 -463 )">
    <path d="M 25.533482142857142 12.338541666666664  C 27.70163690476191 10.461805555555554  28.78571428571429 8.684895833333332  28.78571428571429 7.0078125  C 28.78571428571429 6.19921875  28.661737351190478 5.485460069444443  28.413783482142858 4.866536458333332  C 28.165829613095237 4.247612847222219  27.848679315476193 3.7559678819444433  27.46233258928571 3.3916015625  C 27.07598586309524 3.027235243055554  26.606026785714292 2.7302517361111107  26.052455357142858 2.5006510416666674  C 25.49888392857143 2.271050347222219  24.956845238095237 2.1163194444444433  24.42633928571429 2.0364583333333326  C 23.895833333333336 1.9565972222222192  23.330729166666668 1.9166666666666674  22.73102678571429 1.9166666666666674  C 22.13132440476191 1.9166666666666674  21.48549107142857 2.0439453125  20.79352678571429 2.2985026041666674  C 20.1015625 2.5530598958333326  19.464378720238095 2.872504340277776  18.88197544642857 3.2568359375  C 18.29957217261905 3.641167534722219  17.80078125 4.000542534722219  17.38560267857143 4.3349609375  C 16.97042410714286 4.669379340277776  16.624441964285715 4.976345486111111  16.34765625 5.255859375  C 16.140066964285715 5.4754774305555545  15.857514880952383 5.585286458333332  15.5 5.585286458333332  C 15.142485119047619 5.585286458333332  14.859933035714285 5.4754774305555545  14.65234375 5.255859375  C 14.375558035714285 4.976345486111111  14.029575892857144 4.669379340277776  13.614397321428571 4.3349609375  C 13.19921875 4.000542534722219  12.700427827380954 3.641167534722219  12.118024553571429 3.2568359375  C 11.535621279761907 2.872504340277776  10.8984375 2.5530598958333326  10.206473214285715 2.2985026041666674  C 9.514508928571429 2.0439453125  8.868675595238097 1.9166666666666674  8.268973214285715 1.9166666666666674  C 7.669270833333334 1.9166666666666674  7.104166666666668 1.9565972222222192  6.573660714285714 2.0364583333333326  C 6.043154761904763 2.1163194444444433  5.501116071428572 2.271050347222219  4.947544642857142 2.5006510416666674  C 4.393973214285714 2.7302517361111107  3.924014136904762 3.027235243055554  3.537667410714286 3.3916015625  C 3.1513206845238098 3.7559678819444433  2.834170386904762 4.247612847222219  2.586216517857143 4.866536458333332  C 2.338262648809524 5.485460069444443  2.214285714285714 6.19921875  2.214285714285714 7.0078125  C 2.214285714285714 8.684895833333332  3.2925967261904767 10.45681423611111  5.44921875 12.323567708333336  L 15.5 20.708984375  L 25.533482142857142 12.338541666666664  Z M 28.803013392857142 1.8567708333333326  C 30.267671130952383 3.094618055555554  31 4.811631944444443  31 7.0078125  C 31 9.213975694444443  29.679501488095237 11.460069444444443  27.03850446428571 13.74609375  L 16.26116071428571 22.73046875  C 16.05357142857143 22.91015625  15.799851190476192 23  15.5 23  C 15.20014880952381 23  14.946428571428573 22.91015625  14.738839285714285 22.73046875  L 3.9441964285714284 13.716145833333336  C 3.828869047619048 13.636284722222221  3.670293898809524 13.506510416666664  3.468470982142857 13.326822916666664  C 3.2666480654761907 13.147135416666664  2.9466145833333335 12.820203993055557  2.508370535714286 12.346028645833336  C 2.070126488095238 11.871853298611109  1.678013392857143 11.385199652777775  1.33203125 10.886067708333332  C 0.9860491071428571 10.38693576388889  0.6775483630952381 9.78298611111111  0.40652901785714285 9.07421875  C 0.13550967261904762 8.365451388888886  0 7.6766493055555545  0 7.0078125  C 0 4.811631944444443  0.732328869047619 3.094618055555554  2.196986607142857 1.8567708333333326  C 3.661644345238096 0.6189236111111108  5.6856398809523805 0  8.268973214285715 0  C 8.984002976190476 0  9.713448660714285 0.10731336805555414  10.457310267857144 0.3219401041666675  C 11.201171875 0.5365668402777758  11.893136160714285 0.8260633680555541  12.533203125 1.1904296875  C 13.173270089285717 1.5547960069444433  13.723958333333336 1.8967013888888866  14.185267857142856 2.2161458333333326  C 14.646577380952383 2.535590277777776  15.084821428571429 2.875  15.5 3.234375  C 15.91517857142857 2.875  16.35342261904762 2.535590277777776  16.814732142857142 2.2161458333333326  C 17.276041666666668 1.8967013888888866  17.82672991071429 1.5547960069444433  18.466796875 1.1904296875  C 19.10686383928571 0.8260633680555541  19.798828125 0.5365668402777758  20.542689732142858 0.3219401041666675  C 21.28655133928571 0.10731336805555414  22.015997023809526 0  22.73102678571429 0  C 25.31436011904762 0  27.33835565476191 0.6189236111111108  28.803013392857142 1.8567708333333326  Z " fill-rule="nonzero" fill="#00aaaa" stroke="none" transform="matrix(1 0 0 1 930 463 )" />
  </g>
</svg>