<?xml version="1.0" encoding="utf-8"?>
<svg version="1.1" xmlns:xlink="http://www.w3.org/1999/xlink" width="30px" height="23px" xmlns="http://www.w3.org/2000/svg">
  <g transform="matrix(1 0 0 1 -120 -91 )">
    <path d="M 21.38671875 2.9573567708333326  C 19.405691964285715 2.263563368055554  17.27678571428571 1.9166666666666674  15 1.9166666666666674  C 12.723214285714285 1.9166666666666674  10.594308035714286 2.263563368055554  8.61328125 2.9573567708333326  C 6.632254464285714 3.6511501736111107  5.058593750000001 4.587022569444443  3.892299107142857 5.764973958333332  C 2.7260044642857144 6.942925347222219  2.142857142857143 8.215711805555554  2.142857142857143 9.583333333333332  C 2.142857142857143 10.70138888888889  2.541852678571429 11.767035590277779  3.33984375 12.7802734375  C 4.137834821428571 13.793511284722221  5.2622767857142865 14.669487847222221  6.713169642857142 15.408203125  L 8.169642857142856 16.156901041666664  L 7.717633928571429 17.594401041666668  C 7.449776785714286 18.502821180555557  7.0591517857142865 19.361328125  6.545758928571428 20.169921875  C 8.242187500000002 19.541015625  9.776785714285715 18.6875  11.149553571428571 17.609375  L 11.869419642857144 17.040364583333336  L 12.823660714285715 17.130208333333336  C 13.59375 17.210069444444443  14.319196428571429 17.25  15 17.25  C 17.27678571428571 17.25  19.405691964285715 16.903103298611107  21.38671875 16.209309895833336  C 23.36774553571429 15.515516493055552  24.94140625 14.579644097222221  26.107700892857142 13.401692708333336  C 27.273995535714285 12.223741319444443  27.857142857142858 10.95095486111111  27.857142857142858 9.583333333333332  C 27.857142857142858 8.215711805555554  27.273995535714285 6.942925347222219  26.107700892857142 5.764973958333332  C 24.94140625 4.587022569444443  23.36774553571429 3.6511501736111107  21.38671875 2.9573567708333326  Z M 27.99107142857143 4.769205729166668  C 29.330357142857142 6.241644965277776  30 7.846354166666668  30 9.583333333333332  C 30 11.3203125  29.330357142857142 12.925021701388886  27.99107142857143 14.3974609375  C 26.65178571428571 15.869900173611109  24.83258928571429 17.032877604166664  22.533482142857142 17.886393229166668  C 20.234375000000004 18.739908854166668  17.723214285714285 19.166666666666668  15 19.166666666666668  C 14.218750000000002 19.166666666666668  13.409598214285715 19.12673611111111  12.572544642857144 19.046875  C 10.362723214285715 20.793836805555557  7.79575892857143 22.00173611111111  4.871651785714286 22.670572916666668  C 4.3247767857142865 22.81032986111111  3.6886160714285716 22.92013888888889  2.963169642857143 23  L 2.879464285714286 23  C 2.712053571428571 23  2.561383928571429 22.947591145833332  2.427455357142857 22.8427734375  C 2.293526785714286 22.737955729166668  2.204241071428572 22.600694444444443  2.159598214285714 22.430989583333332  L 2.159598214285714 22.416015625  C 2.1261160714285716 22.376085069444446  2.1233258928571432 22.316189236111114  2.151227678571429 22.236328125  C 2.179129464285715 22.15646701388889  2.190290178571429 22.106553819444443  2.184709821428571 22.086588541666668  C 2.179129464285715 22.06662326388889  2.204241071428572 22.019205729166668  2.260044642857143 21.9443359375  L 2.360491071428571 21.8095703125  C 2.360491071428571 21.8095703125  2.3995535714285716 21.767144097222225  2.477678571428571 21.682291666666668  C 2.555803571428572 21.59743923611111  2.600446428571429 21.55251736111111  2.611607142857143 21.547526041666668  C 2.6897321428571432 21.467664930555557  2.862723214285714 21.295464409722225  3.130580357142857 21.030924479166668  C 3.3984375 20.76638454861111  3.590959821428571 20.576714409722225  3.708147321428571 20.4619140625  C 3.8253348214285716 20.347113715277775  3.9983258928571432 20.149956597222225  4.227120535714286 19.870442708333332  C 4.455915178571429 19.590928819444443  4.637276785714286 19.336371527777775  4.771205357142858 19.106770833333332  C 4.905133928571428 18.87717013888889  5.055803571428572 18.582682291666668  5.223214285714286 18.223307291666668  C 5.390625 17.863932291666668  5.5357142857142865 17.48459201388889  5.658482142857142 17.085286458333336  C 3.9062500000000004 16.19683159722222  2.525111607142857 15.098741319444443  1.5150669642857144 13.791015625  C 0.5050223214285714 12.483289930555552  0 11.080729166666668  0 9.583333333333332  C 0 7.846354166666668  0.6696428571428572 6.241644965277776  2.008928571428571 4.769205729166668  C 3.3482142857142865 3.296766493055554  5.167410714285714 2.1337890625  7.466517857142858 1.2802734375  C 9.765625000000002 0.4267578125  12.276785714285715 0  15 0  C 17.723214285714285 0  20.234375000000004 0.4267578125  22.533482142857142 1.2802734375  C 24.83258928571429 2.1337890625  26.65178571428571 3.296766493055554  27.99107142857143 4.769205729166668  Z " fill-rule="nonzero" fill="#00aaaa" stroke="none" transform="matrix(1 0 0 1 120 91 )" />
  </g>
</svg>