<?xml version="1.0" encoding="utf-8"?>
<svg version="1.1" xmlns:xlink="http://www.w3.org/1999/xlink" width="31px" height="23px" xmlns="http://www.w3.org/2000/svg">
  <g transform="matrix(1 0 0 1 -1037 -461 )">
    <path d="M 22.099609375 2.9573567708333326  C 20.052548363095237 2.263563368055554  17.85267857142857 1.9166666666666674  15.5 1.9166666666666674  C 13.147321428571429 1.9166666666666674  10.947451636904763 2.263563368055554  8.900390625 2.9573567708333326  C 6.853329613095238 3.6511501736111107  5.227213541666667 4.587022569444443  4.022042410714286 5.764973958333332  C 2.8168712797619047 6.942925347222219  2.214285714285714 8.215711805555554  2.214285714285714 9.583333333333332  C 2.214285714285714 10.70138888888889  2.6265811011904767 11.767035590277779  3.451171875 12.7802734375  C 4.275762648809524 13.793511284722221  5.437686011904763 14.669487847222221  6.936941964285714 15.408203125  L 8.441964285714285 16.156901041666664  L 7.974888392857143 17.594401041666668  C 7.698102678571428 18.502821180555557  7.294456845238096 19.361328125  6.763950892857142 20.169921875  C 8.516927083333334 19.541015625  10.102678571428571 18.6875  11.521205357142856 17.609375  L 12.265066964285715 17.040364583333336  L 13.251116071428571 17.130208333333336  C 14.046875 17.210069444444443  14.796502976190476 17.25  15.5 17.25  C 17.85267857142857 17.25  20.052548363095237 16.903103298611107  22.099609375 16.209309895833336  C 24.146670386904766 15.515516493055552  25.772786458333336 14.579644097222221  26.97795758928571 13.401692708333336  C 28.183128720238095 12.223741319444443  28.78571428571429 10.95095486111111  28.78571428571429 9.583333333333332  C 28.78571428571429 8.215711805555554  28.183128720238095 6.942925347222219  26.97795758928571 5.764973958333332  C 25.772786458333336 4.587022569444443  24.146670386904766 3.6511501736111107  22.099609375 2.9573567708333326  Z M 28.924107142857142 4.769205729166668  C 30.30803571428571 6.241644965277776  31 7.846354166666668  31 9.583333333333332  C 31 11.3203125  30.30803571428571 12.925021701388886  28.924107142857142 14.3974609375  C 27.54017857142857 15.869900173611109  25.660342261904766 17.032877604166664  23.28459821428571 17.886393229166668  C 20.908854166666668 18.739908854166668  18.313988095238095 19.166666666666668  15.5 19.166666666666668  C 14.692708333333334 19.166666666666668  13.856584821428571 19.12673611111111  12.991629464285715 19.046875  C 10.708147321428571 20.793836805555557  8.05561755952381 22.00173611111111  5.034040178571428 22.670572916666668  C 4.468936011904763 22.81032986111111  3.8115699404761907 22.92013888888889  3.061941964285714 23  L 2.975446428571429 23  C 2.802455357142857 23  2.646763392857143 22.947591145833332  2.508370535714286 22.8427734375  C 2.369977678571429 22.737955729166668  2.277715773809524 22.600694444444443  2.231584821428571 22.430989583333332  L 2.231584821428571 22.416015625  C 2.1969866071428577 22.376085069444446  2.194103422619048 22.316189236111114  2.222935267857143 22.236328125  C 2.2517671130952386 22.15646701388889  2.2632998511904767 22.106553819444443  2.257533482142857 22.086588541666668  C 2.2517671130952386 22.06662326388889  2.277715773809524 22.019205729166668  2.335379464285714 21.9443359375  L 2.439174107142857 21.8095703125  C 2.439174107142857 21.8095703125  2.4795386904761907 21.767144097222225  2.560267857142857 21.682291666666668  C 2.640997023809524 21.59743923611111  2.6871279761904767 21.55251736111111  2.698660714285714 21.547526041666668  C 2.7793898809523814 21.467664930555557  2.958147321428571 21.295464409722225  3.234933035714286 21.030924479166668  C 3.51171875 20.76638454861111  3.710658482142857 20.576714409722225  3.831752232142857 20.4619140625  C 3.9528459821428577 20.347113715277775  4.1316034226190474 20.149956597222225  4.368024553571428 19.870442708333332  C 4.604445684523809 19.590928819444443  4.791852678571428 19.336371527777775  4.930245535714286 19.106770833333332  C 5.068638392857142 18.87717013888889  5.224330357142858 18.582682291666668  5.397321428571428 18.223307291666668  C 5.5703125 17.863932291666668  5.720238095238096 17.48459201388889  5.847098214285714 17.085286458333336  C 4.036458333333334 16.19683159722222  2.609281994047619 15.098741319444443  1.5655691964285714 13.791015625  C 0.5218563988095238 12.483289930555552  0 11.080729166666668  0 9.583333333333332  C 0 7.846354166666668  0.6919642857142857 6.241644965277776  2.075892857142857 4.769205729166668  C 3.4598214285714293 3.296766493055554  5.339657738095238 2.1337890625  7.715401785714286 1.2802734375  C 10.091145833333334 0.4267578125  12.686011904761907 0  15.5 0  C 18.313988095238095 0  20.908854166666668 0.4267578125  23.28459821428571 1.2802734375  C 25.660342261904766 2.1337890625  27.54017857142857 3.296766493055554  28.924107142857142 4.769205729166668  Z " fill-rule="nonzero" fill="#00aaaa" stroke="none" transform="matrix(1 0 0 1 1037 461 )" />
  </g>
</svg>