<?xml version="1.0" encoding="utf-8"?>
<svg version="1.1" xmlns:xlink="http://www.w3.org/1999/xlink" width="35px" height="39px" xmlns="http://www.w3.org/2000/svg">
  <g transform="matrix(1 0 0 1 -197 0 )">
    <path d="M 30.659301496792587 0.3894436519258194  C 32.25588025659302 -0.20399429386591428  33.48657638393918 -0.0927246790299634  34.35138987883107 0.7232524964336677  C 35.08315514373961 1.687589158345216  35.18294131622714 3.0599144079885887  34.65074839629366 4.840228245363768  C 34.11855547636018 6.620542082738943  33.22047992397244 8.215406562054204  31.956521739130434 9.624821683309555  L 27.940128296507485 14.10342368045649  L 31.931575196008556 33.46433666191155  C 32.01473033974816 33.816690442225394  31.914944167260636 34.12268188302425  31.632216678545973 34.38231098430813  L 28.439059158945117 37.0527817403709  C 28.32264195770967 37.16405135520685  28.16464718460442 37.21968616262482  27.965074839629366 37.21968616262482  C 27.898550724637683 37.21968616262482  27.84034212401996 37.21041369472183  27.79044903777619 37.19186875891584  C 27.540983606557376 37.13623395149786  27.366357804704204 36.98787446504993  27.266571632216678 36.74679029957204  L 20.30648610121169 22.615549215406563  L 13.845331432644334 29.82025677603424  L 15.167498218104063 35.21683309557775  C 15.25065336184367 35.5320970042796  15.184129246851986 35.81954350927247  14.967925873129008 36.07917261055635  L 12.573057733428367 38.74964336661912  C 12.423378474697078 38.91654778887304  12.232121644095987 39  11.999287241625089 39  L 11.949394155381325 39  C 11.69992872416251 38.96291012838802  11.500356379187455 38.842368045649074  11.350677120456165 38.63837375178316  L 6.635780470420528 31.628388017118404  L 0.34925160370634356 26.370898716119832  C 0.1663102874792112 26.241084165477883  0.058208600617723934 26.02781740370898  0.024946543121881683 25.731098430813123  C 0.008315514373960558 25.49001426533523  0.0831551437396056 25.258202567760343  0.24946543121881684 25.035663338088447  L 2.644333570919458 22.33737517831669  C 2.7940128296507485 22.17047075606277  2.985269660251842 22.087018544935805  3.218104062722737 22.087018544935805  C 3.317890235210264 22.087018544935805  3.384414350201949 22.0962910128388  3.4176764076977904 22.114835948644792  L 8.257305773342836 23.58915834522111  L 14.718460441910192 16.384450784593437  L 2.045616535994298 8.62339514978602  C 1.8127821335234025 8.475035663338085  1.6714183891660728 8.252496433666188  1.6215253029223093 7.955777460770328  C 1.5882632454264671 7.659058487874463  1.6631028747921124 7.4087018544935805  1.8460441910192447 7.204707560627675  L 5.0392017106201 3.64407988587732  C 5.272036113090996 3.402995720399426  5.521501544309812 3.3288159771754593  5.787598004276551 3.4215406562054227  L 22.37704918032787 7.844507845934381  L 26.36849607982894 3.3937232524964327  C 27.632454264670944 1.9843081312410806  29.062722736992157 0.9828815977175445  30.659301496792587 0.3894436519258194  Z " fill-rule="nonzero" fill="#00aaaa" stroke="none" transform="matrix(1 0 0 1 197 0 )" />
  </g>
</svg>