<?xml version="1.0" encoding="utf-8"?>
<svg version="1.1" xmlns:xlink="http://www.w3.org/1999/xlink" width="25px" height="25px" xmlns="http://www.w3.org/2000/svg">
  <g transform="matrix(1 0 0 1 -324 -6 )">
    <path d="M 21.89950106913756 0.24964336661911501  C 23.03991446899501 -0.1307655729909707  23.91898313138513 -0.0594388968140791  24.53670705630791 0.463623395149787  C 25.059396531242577 1.0817879220161641  25.13067236873367 1.9614835948644798  24.750534568781184 3.102710413694723  C 24.3703967688287 4.243937232524964  23.728914231408886 5.266286257727054  22.82608695652174 6.169757489300998  L 19.957234497505347 9.040656205420827  L 22.808267997148967 21.451497860199716  C 22.867664528391547 21.677365668093202  22.796388690900454 21.87351402757965  22.594440484675697 22.039942938659056  L 20.3136136849608 23.75178316690442  C 20.230458541221193 23.823109843081312  20.1176051318603 23.858773181169756  19.97505345687812 23.858773181169756  C 19.927536231884062 23.858773181169756  19.885958660014253 23.85282929148835  19.85032074126871 23.840941512125536  C 19.672131147540984 23.80527817403709  19.547398431931576 23.71017593913457  19.476122594440483 23.555634807417974  L 14.50463292943692 14.497146932952926  L 9.88952245188881 19.115549215406563  L 10.83392729864576 22.574893009985736  C 10.893323829888335 22.77698525915359  10.845806604894277 22.961245839277225  10.691375623663578 23.127674750356633  L 8.980755523877406 24.839514978601997  C 8.87384176764077 24.946504992867332  8.737229745782846 25  8.570919458303635 25  L 8.53528153955809 25  C 8.357091945830364 24.976224441274372  8.214540270848183 24.898953875416073  8.107626514611546 24.768188302425106  L 4.73984319315752 20.274607703281028  L 0.24946543121881684 16.904422253922966  C 0.11879306248515087 16.82120779838326  0.04157757186980281 16.684498335710884  0.01781895937277263 16.49429386590585  C 0.005939653124257542 16.33975273418925  0.059396531242575434 16.191155492154067  0.1781895937277263 16.048502139800284  L 1.8888096935138987 14.3188302425107  C 1.9957234497505347 14.211840228245364  2.1323354716084584 14.158345221112695  2.298645759087669 14.158345221112695  C 2.36992159657876 14.158345221112695  2.41743882157282 14.164289110794105  2.4411974340698506 14.176176890156919  L 5.89807555238774 15.121255349500712  L 10.513186029935852 10.502853067047074  L 1.4611546685673558 5.527817403708987  C 1.2948443810881445 5.432715168806465  1.1938702779757662 5.290061816452685  1.1582323592302208 5.099857346647646  C 1.134473746733191 4.909652876842604  1.1879306248515087 4.749167855444602  1.3186029935851746 4.618402282453637  L 3.599429793300071 2.3359486447931537  C 3.7657400807792825 2.1814075130765556  3.9439296745070087 2.133856395625294  4.13399857448325 2.193295292439373  L 15.983606557377051 5.028530670470757  L 18.83464005702067 2.175463623395149  C 19.73746733190782 1.2719923918212057  20.759087669280113 0.6300523062291952  21.89950106913756 0.24964336661911501  Z " fill-rule="nonzero" fill="#00aaaa" stroke="none" transform="matrix(1 0 0 1 324 6 )" />
  </g>
</svg>