<?xml version="1.0" encoding="utf-8"?>
<svg version="1.1" xmlns:xlink="http://www.w3.org/1999/xlink" width="29px" height="29px" xmlns="http://www.w3.org/2000/svg">
  <g transform="matrix(1 0 0 1 0 -43 )">
    <path d="M 17.615234375 16.86983204134367  C 18.106119791666668 16.26410422049957  18.433376736111114 15.96124031007752  18.597005208333332 15.96124031007752  C 18.760633680555557 15.96124031007752  19.374240451388893 16.23600344530577  20.437825520833332 16.785529715762276  C 21.50141059027778 17.335055986218773  22.064670138888893 17.666020671834627  22.127604166666668 17.77842377260982  C 22.15277777777778 17.840869939707147  22.165364583333332 17.934539190353142  22.165364583333332 18.059431524547804  C 22.165364583333332 18.47157622739018  22.058376736111114 18.946167097329887  21.844401041666668 19.483204134366925  C 21.64301215277778 19.970284237726098  21.196180555555557 20.37930663221361  20.50390625 20.710271317829456  C 19.811631944444446 21.041236003445302  19.16970486111111 21.206718346253233  18.578125 21.206718346253233  C 17.860677083333336 21.206718346253233  16.664930555555557 20.81955211024978  14.990885416666668 20.045219638242894  C 13.757378472222223 19.483204134366925  12.6875 18.74633936261843  11.78125 17.834625322997418  C 10.875 16.9229112833764  9.94357638888889 15.767657192075793  8.986979166666666 14.368863049095609  C 8.080729166666666 13.032515073212746  7.6338975694444455 11.821059431524548  7.646484375 10.734496124031008  L 7.646484375 10.584625322997415  C 7.684244791666668 9.448105081826009  8.149956597222223 8.461455641688197  9.043619791666666 7.624677002583978  C 9.345703125 7.349913867355726  9.672960069444446 7.212532299741601  10.025390625 7.212532299741601  C 10.100911458333334 7.212532299741601  10.214192708333334 7.221899224806202  10.365234375 7.240633074935399  C 10.516276041666666 7.259366925064601  10.635850694444446 7.268733850129198  10.723958333333334 7.268733850129198  C 10.96310763888889 7.268733850129198  11.1298828125 7.309323858742462  11.224283854166666 7.390503875968992  C 11.318684895833334 7.47168389319552  11.41623263888889 7.643410852713179  11.516927083333334 7.905684754521963  C 11.617621527777779 8.155469422911281  11.825303819444446 8.704995693367783  12.139973958333334 9.554263565891473  C 12.454644097222223 10.403531438415158  12.611979166666666 10.871877691645132  12.611979166666666 10.959302325581396  C 12.611979166666666 11.22157622739018  12.394856770833334 11.580641688199828  11.960611979166666 12.036498708010337  C 11.5263671875 12.492355727820842  11.309244791666666 12.782730404823427  11.309244791666666 12.90762273901809  C 11.309244791666666 12.99504737295435  11.340711805555557 13.088716623600343  11.403645833333334 13.18863049095607  C 11.831597222222223 14.100344530577088  12.473524305555557 14.955857019810505  13.329427083333334 15.75516795865633  C 14.034288194444446 16.417097329888026  14.984592013888891 17.04780361757106  16.180338541666668 17.647286821705425  C 16.331380208333332 17.734711455641687  16.469835069444443 17.77842377260982  16.595703125 17.77842377260982  C 16.784505208333336 17.77842377260982  17.124348958333336 17.475559862187765  17.615234375 16.86983204134367  Z M 8.250651041666666 23.941860465116278  C 10.239366319444446 25.24074074074074  12.410590277777777 25.89018087855297  14.764322916666668 25.89018087855297  C 16.362847222222225 25.89018087855297  17.895290798611114 25.57795004306632  19.361653645833332 24.953488372093023  C 20.828016493055557 24.329026701119727  22.08984375 23.492248062015502  23.147135416666668 22.44315245478036  C 24.204427083333332 21.39405684754522  25.047743055555557 20.142011197243754  25.677083333333332 18.68701550387597  C 26.306423611111114 17.23201981050818  26.62109375 15.711455641688197  26.62109375 14.125322997416022  C 26.62109375 12.539190353143841  26.306423611111114 11.018626184323857  25.677083333333332 9.56363049095607  C 25.047743055555557 8.108634797588286  24.204427083333332 6.856589147286821  23.147135416666668 5.807493540051679  C 22.08984375 4.758397932816537  20.828016493055557 3.921619293712315  19.361653645833332 3.2971576227390185  C 17.895290798611114 2.6726959517657156  16.362847222222225 2.360465116279071  14.764322916666668 2.360465116279071  C 13.165798611111112 2.360465116279071  11.633355034722223 2.6726959517657156  10.1669921875 3.2971576227390185  C 8.700629340277779 3.921619293712315  7.438802083333334 4.758397932816537  6.381510416666667 5.807493540051679  C 5.32421875 6.856589147286821  4.480902777777778 8.108634797588286  3.8515625 9.56363049095607  C 3.2222222222222223 11.018626184323857  2.9075520833333335 12.539190353143841  2.9075520833333335 14.125322997416022  C 2.9075520833333335 16.660637381567614  3.662760416666667 18.958656330749353  5.173177083333333 21.01937984496124  L 3.681640625 25.3843669250646  L 8.250651041666666 23.941860465116278  Z M 9.241861979166666 1.1240310077519369  C 10.997721354166666 0.37467700258397785  12.838541666666666 0  14.764322916666668 0  C 16.690104166666668 0  18.530924479166668 0.37467700258397785  20.286783854166668 1.1240310077519369  C 22.042643229166668 1.8733850129198957  23.556206597222225 2.878768303186906  24.827473958333332 4.14018087855297  C 26.098741319444446 5.401593453919035  27.111979166666668 6.903423772609821  27.8671875 8.645671834625324  C 28.622395833333332 10.387919896640826  29 12.214470284237724  29 14.125322997416022  C 29 16.036175710594314  28.622395833333332 17.862726098191217  27.8671875 19.604974160206716  C 27.111979166666668 21.347222222222225  26.098741319444446 22.849052540913004  24.827473958333332 24.11046511627907  C 23.556206597222225 25.371877691645132  22.042643229166668 26.377260981912144  20.286783854166668 27.126614987080103  C 18.530924479166668 27.875968992248062  16.690104166666668 28.25064599483204  14.764322916666668 28.25064599483204  C 12.309895833333334 28.25064599483204  10.012803819444446 27.66365202411714  7.873046875 26.48966408268734  L 0 29  L 2.5677083333333335 21.412790697674417  C 1.2083333333333333 19.189707149009475  0.5286458333333334 16.760551248923342  0.5286458333333334 14.125322997416022  C 0.5286458333333334 12.214470284237724  0.90625 10.387919896640826  1.6614583333333333 8.645671834625324  C 2.4166666666666665 6.903423772609821  3.4299045138888893 5.401593453919035  4.701171875 4.14018087855297  C 5.972439236111112 2.878768303186906  7.486002604166666 1.8733850129198957  9.241861979166666 1.1240310077519369  Z " fill-rule="nonzero" fill="#00aaaa" stroke="none" transform="matrix(1 0 0 1 0 43 )" />
  </g>
</svg>