<?xml version="1.0" encoding="utf-8"?>
<svg version="1.1" xmlns:xlink="http://www.w3.org/1999/xlink" width="29px" height="29px" xmlns="http://www.w3.org/2000/svg">
  <g transform="matrix(1 0 0 1 -36 -43 )">
    <path d="M 1.6048177083333333 0  L 27.395182291666668 0  C 27.835720486111114 0  28.21332465277778 0.1573350694444441  28.527994791666668 0.47200520833333226  C 28.842664930555554 0.7866753472222204  29 1.1642795138888848  29 1.6048177083333321  L 29 27.395182291666668  C 29 27.835720486111107  28.842664930555554 28.213324652777775  28.527994791666668 28.527994791666668  C 28.21332465277778 28.842664930555557  27.835720486111114 29  27.395182291666668 29  L 20 29  L 20 17.766276041666664  L 23.770182291666668 17.766276041666664  L 24.336588541666668 13.386067708333332  L 20.013020833333332 13.386067708333332  L 20.013020833333332 10.591796875  C 20.013020833333332 9.886935763888886  20.160915798611114 9.358289930555554  20.456705729166668 9.005859375  C 20.752495659722225 8.653428819444445  21.328342013888893 8.477213541666668  22.184244791666668 8.477213541666668  L 24.487630208333332 8.458333333333332  L 24.487630208333332 4.550130208333332  C 23.694661458333332 4.436848958333332  22.574435763888893 4.380208333333332  21.126953125 4.380208333333332  C 19.415147569444446 4.380208333333332  18.04633246527778 4.883680555555553  17.0205078125 5.890625  C 15.994683159722223 6.897569444444444  15.481770833333332 8.31987847222222  15.481770833333332 10.157552083333332  L 15.481770833333332 13.386067708333332  L 11.705729166666666 13.386067708333332  L 11.705729166666666 17.766276041666664  L 15 17.766276041666664  L 15 29  L 1.6048177083333333 29  C 1.164279513888889 29  0.7866753472222223 28.842664930555557  0.47200520833333337 28.527994791666668  C 0.15733506944444442 28.213324652777775  0 27.835720486111107  0 27.395182291666668  L 0 1.6048177083333321  C 0 1.1642795138888848  0.15733506944444442 0.7866753472222204  0.47200520833333337 0.47200520833333226  C 0.7866753472222223 0.1573350694444441  1.164279513888889 0  1.6048177083333333 0  Z " fill-rule="nonzero" fill="#00aaaa" stroke="none" transform="matrix(1 0 0 1 36 43 )" />
  </g>
</svg>